<?xml version="1.0" encoding="utf-8"?>
<svg version="1.0"
     id="Слой_1"
     xmlns="http://www.w3.org/2000/svg"
     xmlns:xlink="http://www.w3.org/1999/xlink"
     x="0px"
     y="0px"
     viewBox="0 0 134.17 134.17"
     style="enable-background:new 0 0 134.17 134.17;"
     xml:space="preserve">
  <g>
    <path class="st0"
          d="M68.55,83.39c-11.08,0-18.9-7.7-18.7-17.48c0.18-9.08,7.48-16.78,17.27-16.77c4.75,0.01,8.86,1.82,12.18,5.27
		c3.19,3.32,4.83,7.31,4.81,11.9c-0.02,4.68-1.71,8.74-5.05,12.06C75.73,81.69,71.68,83.31,68.55,83.39z" />
    <path class="st0"
          d="M76.35,24.46c-0.12,1.06-0.06,2.12-0.28,3.15c-0.28,1.28-0.63,2.55-1.1,3.79c-1.11,2.93-2.75,5.55-4.64,8.03
		c-0.88,1.16-1.84,2.27-2.84,3.34c-0.05,0.05-0.1,0.1-0.15,0.15c-0.38,0.37-0.48,0.37-0.8-0.04c-0.61-0.79-1.22-1.58-1.79-2.4
		c-1.32-1.87-2.46-3.85-3.41-5.93c-0.4-0.89-0.71-1.83-1.03-2.75c-0.11-0.32-0.14-0.66-0.17-1c-0.05-0.61-0.21-1.19-0.38-1.77
		c-0.37-1.35-0.59-2.72-0.46-4.12c0.19-2.16,0.62-4.25,1.6-6.22c0.73-1.46,1.62-2.8,2.66-4.06c1.49-1.8,3.26-3.28,5.12-4.68
		c0.41-0.31,0.48-0.29,0.86,0.07c1.57,1.5,2.92,3.18,4.04,5.04c1.1,1.83,1.9,3.78,2.37,5.87C76.21,22.11,76.18,23.3,76.35,24.46z" />
    <path class="st0"
          d="M24.78,32.05c0-0.22,0-0.63,0-1.04c0-0.25,0.12-0.38,0.36-0.46c0.34-0.12,0.7-0.11,1.05-0.17
		c0.51-0.09,1.02-0.13,1.54-0.16c0.76-0.05,1.52-0.24,2.29-0.19c0.82,0.05,1.63-0.01,2.45,0.15c0.67,0.14,1.37,0.17,2.06,0.25
		c0.56,0.07,1.08,0.24,1.6,0.4c1.64,0.49,3.17,1.21,4.55,2.22c1.13,0.83,2.2,1.74,3.1,2.86c0.94,1.16,1.79,2.36,2.49,3.67
		c0.9,1.65,1.59,3.39,2.18,5.17c0.48,1.44,0.81,2.92,1.15,4.39c0.2,0.85,0.33,1.71,0.45,2.57c0.04,0.3-0.05,0.41-0.4,0.42
		c-0.78,0.01-1.57,0.05-2.35-0.04c-0.25-0.03-0.5-0.05-0.75-0.05c-1.52,0.02-3.02-0.18-4.51-0.46c-1-0.19-2-0.35-2.98-0.63
		c-2.29-0.66-4.49-1.52-6.49-2.85c-1.85-1.23-3.41-2.73-4.66-4.58c-0.92-1.36-1.6-2.83-2.09-4.38c-0.35-1.1-0.64-2.23-0.75-3.39
		C24.95,34.58,24.74,33.42,24.78,32.05z" />
    <path class="st0"
          d="M94.13,105.58c0.02,1.4-0.19,2.77-0.41,4.14c-0.31,1.85-0.85,3.64-1.52,5.39c-0.2,0.54-0.21,0.54-0.77,0.44
		c-0.91-0.16-1.79-0.46-2.67-0.74c-2.44-0.76-4.69-1.9-6.7-3.49c-1.81-1.42-3.19-3.21-4.24-5.24c-0.53-1.03-0.95-2.11-1.22-3.24
		c-0.15-0.64-0.41-1.26-0.46-1.92c-0.04-0.58-0.25-1.15-0.18-1.74c0.01-0.09,0.01-0.18-0.01-0.27c-0.31-1.4-0.18-2.81-0.12-4.21
		c0.03-0.77,0.1-1.56,0.23-2.33c0.07-0.42,0.07-0.85,0.13-1.27c0.18-1.32,0.51-2.62,0.76-3.93c0.06-0.32,0.23-0.39,0.61-0.26
		c0.91,0.3,1.82,0.63,2.71,0.99c2.46,0.99,4.78,2.25,6.88,3.87c0.89,0.68,1.76,1.4,2.51,2.24c1.21,1.37,2.28,2.84,3.03,4.51
		c0.62,1.38,1.05,2.84,1.25,4.35C94.05,103.77,94.12,104.67,94.13,105.58z" />
    <path class="st0"
          d="M26.64,83.21c-1.25-0.02-2.48-0.22-3.7-0.46c-2.17-0.44-4.18-1.3-6.12-2.33c-1.09-0.58-2.13-1.24-3.16-1.91
		c-0.09-0.06-0.18-0.12-0.26-0.18c-0.34-0.26-0.37-0.33-0.19-0.72c0.35-0.78,0.8-1.52,1.25-2.24c0.68-1.09,1.44-2.12,2.28-3.1
		c1.08-1.25,2.3-2.33,3.68-3.25c1.38-0.92,2.88-1.59,4.46-2.05c0.99-0.29,2.01-0.48,3.05-0.51c0.61-0.02,1.2-0.13,1.81-0.1
		c1.09,0.05,2.18,0.1,3.25,0.26c1.09,0.17,2.16,0.43,3.23,0.72c2,0.55,3.92,1.31,5.8,2.17c0.73,0.33,1.46,0.67,2.16,1.07
		c0.47,0.27,0.48,0.27,0.2,0.71c-0.8,1.29-1.68,2.53-2.66,3.69c-0.94,1.12-1.91,2.21-3.01,3.19c-1.52,1.34-3.16,2.52-4.98,3.4
		c-1.78,0.86-3.65,1.41-5.64,1.57C27.6,83.14,27.13,83.25,26.64,83.21z" />
    <path class="st0"
          d="M59.06,97.46c-0.01,0.71-0.04,1.42-0.14,2.13c-0.11,0.74-0.12,1.49-0.28,2.22c-0.59,2.79-1.72,5.33-3.59,7.5
		c-1.34,1.55-2.9,2.84-4.67,3.88c-1.62,0.95-3.35,1.67-5.12,2.3c-0.44,0.15-0.89,0.25-1.33,0.39c-0.22,0.07-0.38,0.01-0.49-0.19
		c-0.05-0.09-0.11-0.19-0.15-0.28c-0.73-1.61-1.38-3.25-1.78-4.98c-0.36-1.53-0.6-3.08-0.56-4.66c0.07-2.51,0.61-4.9,1.79-7.14
		c1.1-2.09,2.56-3.89,4.27-5.52c1.39-1.32,2.94-2.43,4.52-3.5c1.57-1.06,3.26-1.91,4.95-2.77c0.52-0.26,0.64-0.2,0.81,0.34
		c0.64,1.93,1.05,3.92,1.42,5.92c0.11,0.59,0.21,1.19,0.17,1.8c-0.01,0.14-0.02,0.29,0.02,0.43C59.11,96.03,59.05,96.75,59.06,97.46
		z" />
    <path class="st0"
          d="M103.54,64.42c-0.68,0-1.37,0.08-2.03-0.02c-0.79-0.12-1.59-0.17-2.37-0.35c-0.59-0.14-1.19-0.24-1.77-0.39
		c-1.49-0.37-2.95-0.82-4.39-1.36c-1.14-0.42-2.25-0.91-3.36-1.39c-0.11-0.05-0.23-0.1-0.34-0.16c-0.47-0.24-0.48-0.28-0.2-0.72
		c0.75-1.15,1.58-2.24,2.46-3.3c0.82-0.99,1.68-1.95,2.61-2.83c1.94-1.82,4.06-3.39,6.51-4.45c1.29-0.56,2.62-1,4.04-1.18
		c0.83-0.11,1.67-0.19,2.5-0.23c0.62-0.03,1.25,0.06,1.87,0.13c1.69,0.18,3.33,0.62,4.9,1.26c1.32,0.54,2.6,1.18,3.81,1.94
		c0.64,0.4,1.26,0.81,1.88,1.22c0.47,0.31,0.51,0.4,0.26,0.92c-0.55,1.12-1.18,2.2-1.89,3.23c-0.93,1.36-2,2.6-3.25,3.68
		c-1.9,1.64-4.04,2.83-6.51,3.45c-0.83,0.21-1.67,0.36-2.51,0.49c-0.73,0.12-1.49,0.02-2.24,0.02
		C103.54,64.41,103.54,64.41,103.54,64.42z" />
    <path class="st0"
          d="M104.44,65.89c2.9,0.12,5.58,0.72,8.06,2.12c1.22,0.69,2.32,1.53,3.36,2.46c1.93,1.71,3.42,3.77,4.76,5.95
		c0.26,0.42,0.26,0.44-0.1,0.75c-0.97,0.84-2.02,1.58-3.12,2.26c-1.49,0.92-3.07,1.69-4.75,2.2c-1.07,0.33-2.17,0.55-3.3,0.64
		c-0.49,0.04-0.98,0.19-1.48,0.15c-1.96-0.14-3.89-0.44-5.74-1.14c-2.06-0.78-3.93-1.86-5.7-3.15c-2-1.45-3.74-3.2-5.44-4.98
		c-0.49-0.52-0.94-1.08-1.39-1.63c-0.28-0.34-0.25-0.45,0.12-0.67c2.06-1.26,4.2-2.37,6.45-3.23c1.74-0.67,3.53-1.13,5.36-1.43
		C102.53,66.03,103.52,65.99,104.44,65.89z" />
    <path class="st0"
          d="M88.07,80.06c1.53,0.06,3.06,0.2,4.58,0.37c1.13,0.13,2.26,0.32,3.36,0.6c2.43,0.63,4.74,1.56,6.8,3.03
		c2.76,1.96,4.67,4.56,5.9,7.71c0.52,1.32,0.82,2.69,1.11,4.07c0.11,0.5,0.19,1.01,0.18,1.53c0,0.5,0.21,0.97,0.18,1.48
		c-0.04,0.68-0.09,0.71-0.74,0.87c-0.78,0.19-1.58,0.31-2.37,0.36c-1.21,0.08-2.41,0.24-3.63,0.08c-0.76-0.09-1.53-0.11-2.28-0.25
		c-1.52-0.28-2.95-0.82-4.32-1.52c-1.85-0.94-3.46-2.22-4.82-3.77c-1.51-1.74-2.8-3.64-3.83-5.72c-0.81-1.65-1.5-3.35-2.13-5.08
		c-0.36-1-0.64-2.04-0.94-3.07c-0.12-0.42-0.04-0.54,0.38-0.55C86.36,80.18,87.21,79.98,88.07,80.06z" />
    <path class="st0"
          d="M60.14,106.05c-0.1-0.84-0.01-1.7,0.12-2.54c0.15-0.94,0.3-1.89,0.57-2.82c0.32-1.08,0.64-2.15,1.06-3.19
		c0.59-1.5,1.28-2.94,2.04-4.36c0.73-1.35,1.54-2.65,2.38-3.94c0.47-0.71,0.55-0.71,1.1-0.06c1.24,1.47,2.49,2.94,3.55,4.55
		c1.19,1.81,2.21,3.7,3,5.72c0.64,1.64,1.05,3.34,1.24,5.08c0.15,1.38,0.13,2.78-0.16,4.16c-0.28,1.37-0.62,2.71-1.21,3.98
		c-0.54,1.17-1.18,2.28-1.92,3.33c-1.06,1.51-2.35,2.82-3.67,4.1c-0.34,0.33-0.35,0.33-0.75,0.02c-2.07-1.62-3.88-3.47-5.22-5.75
		c-0.86-1.45-1.48-3.01-1.83-4.66C60.2,108.48,60.03,107.28,60.14,106.05z" />
    <path class="st0"
          d="M86.25,51.24c-0.39-0.01-0.78,0.01-1.18-0.04c-0.28-0.03-0.37-0.17-0.33-0.43c0.14-0.86,0.25-1.73,0.44-2.58
		c0.2-0.94,0.44-1.87,0.71-2.8c0.5-1.73,1.18-3.4,1.99-5.02c0.43-0.85,0.96-1.63,1.58-2.35c0.38-0.45,0.74-0.92,1.03-1.43
		c0.49-0.84,1.21-1.45,1.91-2.08c0.99-0.91,2.12-1.63,3.32-2.23c1.17-0.58,2.38-1.05,3.67-1.3c0.56-0.11,1.11-0.26,1.67-0.35
		c0.58-0.09,1.17-0.16,1.75-0.18c0.95-0.03,1.89-0.04,2.84,0c0.71,0.03,1.43,0.05,2.12,0.22c0.56,0.13,0.66,0.22,0.58,0.77
		c-0.14,0.95-0.06,1.91-0.24,2.87c-0.15,0.77-0.25,1.55-0.39,2.32c-0.22,1.24-0.63,2.42-1.13,3.56c-0.56,1.28-1.25,2.49-2.13,3.58
		c-1.08,1.32-2.31,2.48-3.72,3.43c-1.99,1.34-4.18,2.22-6.48,2.87c-0.95,0.27-1.91,0.41-2.87,0.59c-0.68,0.13-1.36,0.27-2.05,0.34
		c-0.18,0.02-0.35,0.05-0.53,0.06c-0.43,0-0.85,0.02-1.27,0.12C87.11,51.28,86.68,51.23,86.25,51.24z" />
    <path class="st0"
          d="M29.42,100.36c-0.8,0.02-1.7-0.07-2.61-0.19c-0.46-0.06-0.92-0.1-1.38-0.16c-0.11-0.01-0.21-0.01-0.32-0.03
		c-0.61-0.12-0.72-0.26-0.66-0.87c0.1-1.01,0.18-2.02,0.34-3.03c0.24-1.5,0.65-2.95,1.25-4.35c0.55-1.29,1.24-2.49,2.1-3.59
		c0.87-1.11,1.86-2.11,3.01-2.94c0.68-0.49,1.37-0.95,2.1-1.38c1.69-0.99,3.52-1.66,5.39-2.19c1.18-0.33,2.38-0.61,3.6-0.75
		c0.99-0.11,1.96-0.33,2.95-0.38c1.1-0.06,2.2-0.2,3.31-0.15c0.4,0.02,0.45,0.04,0.37,0.44c-0.18,0.89-0.38,1.78-0.61,2.65
		c-0.44,1.67-0.99,3.31-1.69,4.9c-0.61,1.39-1.31,2.73-2.15,4c-0.9,1.36-1.95,2.59-3.14,3.7c-1.39,1.29-2.96,2.29-4.71,3
		c-0.86,0.35-1.73,0.68-2.64,0.85C32.49,100.17,31.02,100.38,29.42,100.36z" />
    <path class="st0"
          d="M31.33,64.43c-0.38,0.01-0.75-0.03-1.12-0.11c-0.16-0.03-0.32-0.07-0.48-0.07c-0.94,0.03-1.84-0.2-2.74-0.41
		c-2.18-0.49-4.13-1.46-5.9-2.79c-1.16-0.87-2.17-1.89-3.11-3c-1.12-1.33-2.02-2.8-2.87-4.31c-0.29-0.52-0.26-0.63,0.22-0.97
		c1.26-0.88,2.55-1.72,3.96-2.33c1.21-0.53,2.45-0.95,3.76-1.19c1.36-0.25,2.72-0.35,4.1-0.26c2.04,0.14,4,0.65,5.88,1.48
		c1.62,0.71,3.16,1.59,4.6,2.61c1.49,1.05,2.9,2.19,4.21,3.46c0.94,0.9,1.84,1.84,2.75,2.77c0.24,0.24,0.46,0.5,0.67,0.77
		c0.22,0.28,0.2,0.35-0.13,0.52c-0.87,0.46-1.75,0.89-2.66,1.26c-1.59,0.64-3.2,1.23-4.86,1.65c-1.23,0.31-2.46,0.61-3.72,0.71
		C33.03,64.27,32.19,64.43,31.33,64.43z" />
    <path class="st0"
          d="M59.07,34.54c0.01,0.38-0.03,0.75-0.09,1.12c-0.09,0.51-0.07,1.03-0.11,1.54c-0.07,0.81-0.13,1.63-0.31,2.43
		c-0.17,0.78-0.3,1.58-0.47,2.36c-0.23,1.06-0.55,2.1-0.86,3.14c-0.08,0.27-0.17,0.3-0.44,0.15c-0.44-0.24-0.87-0.49-1.28-0.77
		c-1.17-0.79-2.34-1.58-3.43-2.47c-1.64-1.35-3.19-2.79-4.53-4.46c-1.12-1.38-2.08-2.85-2.84-4.46c-0.68-1.44-1.08-2.97-1.36-4.54
		c-0.22-1.19-0.15-2.38-0.14-3.57c0-0.61,0.18-1.23,0.29-1.84c0.35-2.1,1.16-4.04,2.09-5.93c0.21-0.43,0.3-0.46,0.76-0.3
		c2.35,0.84,4.53,2,6.49,3.57c1.77,1.42,3.15,3.14,4.21,5.14c0.39,0.74,0.7,1.52,0.99,2.31c0.1,0.28,0.07,0.56,0.11,0.85
		c0.13,0.87,0.35,1.71,0.57,2.55C58.98,32.4,58.97,33.48,59.07,34.54z" />
    <path class="st0"
          d="M91.87,26.81c0.07,2.13-0.31,4-0.96,5.8c-0.36,1-0.73,2.03-1.45,2.85c-0.51,0.58-0.98,1.19-1.38,1.84
		c-0.45,0.73-1.02,1.33-1.61,1.92c-1.24,1.25-2.66,2.27-4.13,3.22c-1.17,0.76-2.4,1.41-3.64,2.05c-0.33,0.17-0.68,0.31-1.03,0.46
		c-0.24,0.1-0.38,0.02-0.44-0.22c-0.07-0.3-0.13-0.59-0.17-0.89c-0.26-1.8-0.5-3.59-0.64-5.4c-0.16-2.07-0.13-4.13,0.15-6.2
		c0.13-0.94,0.26-1.87,0.48-2.78c0.59-2.46,1.59-4.72,3.15-6.73c1.16-1.5,2.53-2.76,4.11-3.79c1.12-0.73,2.28-1.4,3.55-1.86
		c0.32-0.11,0.62-0.28,0.93-0.41c0.38-0.15,0.49-0.1,0.66,0.28c0.96,2.14,1.68,4.35,2.12,6.66c0.11,0.56,0.13,1.13,0.22,1.69
		C91.89,25.87,91.84,26.44,91.87,26.81z" />
    <path class="st0"
          d="M124.05,36.62c-0.14,1.58-0.24,3.01-0.49,4.41c-0.12,0.66-0.2,1.34-0.31,2c-0.11,0.63-0.23,1.26-0.38,1.88
		c-0.4,1.66-0.81,3.32-1.4,4.93c-0.17,0.47-0.35,0.94-0.53,1.4c-0.12,0.3-0.19,0.33-0.48,0.15c-0.65-0.4-1.29-0.83-1.94-1.24
		c-2.08-1.32-4.33-2.25-6.7-2.92c-0.56-0.16-1.16-0.19-1.73-0.31c-1.18-0.25-2.37-0.29-3.56-0.26c-0.69,0.02-1.39,0.05-2.06,0.25
		c-0.25,0.07-0.53,0.08-0.79,0.11c-0.05,0.01-0.11-0.02-0.14-0.05c-0.05-0.06-0.02-0.14,0.03-0.19c0.05-0.05,0.1-0.1,0.16-0.15
		c2.12-1.94,3.62-4.29,4.61-6.99c0.56-1.52,0.85-3.09,1.16-4.66c0.18-0.95,0.17-1.91,0.25-2.87c0.02-0.23,0-0.46,0.01-0.7
		c0.02-0.36,0.07-0.41,0.42-0.35c0.61,0.12,1.23,0.24,1.83,0.4c2.45,0.64,4.86,1.43,7.21,2.38c1.41,0.57,2.78,1.2,4.16,1.83
		C123.84,35.92,124.18,36.19,124.05,36.62z" />
    <path class="st0"
          d="M31.95,14.69c1.44-0.12,2.82,0.08,4.21,0.13c1.19,0.04,2.37,0.23,3.55,0.45c1.08,0.2,2.18,0.37,3.25,0.64
		c0.36,0.09,0.72,0.19,1.08,0.31c0.31,0.1,0.36,0.21,0.24,0.52c-0.08,0.2-0.18,0.39-0.28,0.58c-0.96,1.99-1.61,4.07-1.99,6.24
		c-0.27,1.55-0.28,3.1-0.13,4.64c0.14,1.44,0.48,2.88,1.03,4.25c0.06,0.14,0.22,0.31,0.06,0.43c-0.16,0.13-0.28-0.08-0.4-0.17
		c-1.02-0.82-2.11-1.52-3.27-2.12c-1.04-0.54-2.14-0.9-3.23-1.28c-0.5-0.17-1.04-0.23-1.57-0.32c-1.82-0.32-3.65-0.37-5.49-0.32
		c-0.77,0.02-1.52,0.18-2.28,0.26c-0.42,0.04-0.85,0.07-1.27,0.16c-0.38,0.08-0.5-0.06-0.51-0.48c-0.02-0.55,0.09-1.1,0.16-1.65
		c0.17-1.23,0.4-2.46,0.65-3.68c0.17-0.84,0.43-1.65,0.62-2.49c0.44-1.88,1.04-3.7,1.64-5.53c0.08-0.25,0.17-0.45,0.49-0.46
		C29.68,14.77,30.83,14.57,31.95,14.69z" />
    <path class="st0"
          d="M41.34,98.01c0.08,0.12,0.03,0.2-0.01,0.28c-0.63,1.21-1.03,2.5-1.37,3.82c-0.14,0.57-0.22,1.15-0.28,1.74
		c-0.18,1.59-0.1,3.16,0.08,4.75c0.3,2.55,1.14,4.92,2.18,7.23c0.19,0.43,0.14,0.58-0.32,0.66c-1.17,0.23-2.34,0.49-3.52,0.64
		c-0.58,0.07-1.16,0.16-1.74,0.19c-0.65,0.04-1.31,0.12-1.96,0.19c-1.85,0.22-3.71,0.2-5.56,0.2c-0.34,0-0.54-0.17-0.65-0.46
		c-0.34-0.92-0.74-1.82-1.07-2.74c-0.36-1.03-0.64-2.08-0.98-3.11c-0.25-0.78-0.47-1.57-0.61-2.38c-0.14-0.81-0.42-1.59-0.51-2.41
		c-0.11-0.97-0.32-1.93-0.38-2.91c-0.04-0.58-0.09-1.17-0.15-1.76c-0.05-0.46,0.05-0.59,0.53-0.57c0.5,0.02,1,0.06,1.48,0.17
		c0.37,0.09,0.74,0.14,1.11,0.13c0.66,0,1.31,0.12,1.98,0.12c0.82,0,1.65-0.05,2.46-0.15c3-0.36,5.8-1.3,8.31-3.02
		c0.29-0.2,0.54-0.47,0.87-0.62C41.25,98,41.29,98.01,41.34,98.01z" />
    <path class="st0"
          d="M126.36,91.03c0.02,0.38-0.16,0.53-0.35,0.67c-1.21,0.88-2.44,1.75-3.71,2.54c-1.03,0.64-2.09,1.24-3.15,1.81
		c-1.81,0.97-3.68,1.82-5.62,2.49c-0.5,0.18-0.99,0.41-1.52,0.52c-0.37,0.08-0.46,0.02-0.47-0.36c-0.06-1.77-0.39-3.49-0.83-5.2
		c-0.61-2.38-1.58-4.58-3.02-6.57c-0.6-0.82-1.24-1.61-1.97-2.32c-0.27-0.26-0.56-0.49-0.84-0.75c-0.08-0.07-0.17-0.16-0.09-0.27
		c0.05-0.08,0.15-0.08,0.24-0.07c0.12,0.02,0.25,0.04,0.37,0.06c1.49,0.28,2.98,0.31,4.47,0.08c1.86-0.28,3.67-0.74,5.39-1.5
		c1.87-0.83,3.6-1.89,5.22-3.13c0.27-0.21,0.53-0.42,0.8-0.62c0.22-0.17,0.31-0.15,0.47,0.1c0.1,0.17,0.18,0.35,0.27,0.52
		c1.17,2.37,2.14,4.82,2.96,7.34c0.45,1.37,0.8,2.77,1.23,4.15C126.29,90.71,126.33,90.92,126.36,91.03z" />
    <path class="st0"
          d="M8.78,93.18c0.08-0.63,0.14-1.25,0.23-1.86c0.16-1,0.31-2,0.53-2.99c0.5-2.21,1.04-4.4,1.84-6.53
		c0.25-0.65,0.48-1.31,0.76-1.94c0.21-0.47,0.23-0.48,0.65-0.21c0.79,0.49,1.56,1,2.36,1.48c1.41,0.84,2.9,1.53,4.43,2.12
		c1.83,0.7,3.72,1.11,5.66,1.3c1.28,0.12,2.57,0.09,3.84-0.13c0.11-0.02,0.21-0.04,0.32-0.05c0.07-0.01,0.14,0.02,0.18,0.08
		c0.04,0.07,0.02,0.14-0.03,0.2c-0.06,0.07-0.12,0.13-0.19,0.19c-1.44,1.2-2.59,2.64-3.54,4.25c-0.75,1.27-1.31,2.6-1.75,4.01
		c-0.28,0.91-0.45,1.83-0.64,2.75c-0.2,1.04-0.23,2.08-0.35,3.13c-0.06,0.51-0.1,0.52-0.62,0.4c-2.37-0.55-4.63-1.41-6.87-2.36
		c-2.19-0.93-4.32-1.96-6.38-3.15C8.96,93.71,8.69,93.56,8.78,93.18z" />
    <path class="st0"
          d="M58.61,106.71c0.03,0.02,0.08,0.05,0.1,0.09c0.03,0.08,0.04,0.17,0.04,0.26c0,1.66,0.35,3.25,0.87,4.81
		c0.58,1.75,1.46,3.33,2.53,4.82c0.69,0.96,1.5,1.81,2.33,2.64c0.62,0.62,1.28,1.18,1.96,1.74c0.25,0.2,0.27,0.3,0.02,0.51
		c-0.46,0.39-0.95,0.76-1.44,1.11c-3.15,2.31-6.56,4.18-10.1,5.82c-0.28,0.13-0.56,0.24-0.83,0.38c-0.26,0.14-0.48,0.09-0.68-0.1
		c-0.04-0.04-0.08-0.07-0.12-0.11c-1.61-1.54-3.15-3.16-4.57-4.89c-1.38-1.69-2.64-3.46-3.79-5.31c-0.17-0.27-0.33-0.55-0.48-0.84
		c-0.15-0.29-0.12-0.37,0.18-0.48c0.45-0.16,0.92-0.28,1.38-0.44c2.33-0.82,4.57-1.85,6.59-3.29c1.38-0.99,2.65-2.1,3.72-3.44
		c0.74-0.93,1.39-1.9,1.94-2.94C58.43,106.76,58.49,106.71,58.61,106.71z" />
    <path class="st0"
          d="M25.85,65.14c-0.04,0.17-0.16,0.21-0.28,0.23c-0.77,0.1-1.48,0.38-2.21,0.62c-1.54,0.51-2.94,1.27-4.26,2.2
		c-2.21,1.57-3.98,3.56-5.46,5.81c-0.56,0.85-1.06,1.74-1.55,2.62c-0.26,0.47-0.35,0.48-0.76,0.15C10.15,75.82,9,74.84,7.9,73.79
		c-0.81-0.78-1.67-1.51-2.41-2.36C4.8,70.64,4,69.94,3.34,69.12c-0.23-0.28-0.26-0.52-0.1-0.82c0.44-0.84,0.85-1.69,1.31-2.52
		c1.26-2.26,2.68-4.42,4.25-6.48c0.45-0.6,0.93-1.18,1.44-1.72c0.97-1.05,1.91-2.12,3-3.05c0.41-0.35,0.54-0.33,0.8,0.15
		c0.34,0.63,0.69,1.25,1.07,1.85c1.15,1.83,2.52,3.47,4.14,4.88c1.47,1.28,3.11,2.33,4.95,3.03c0.48,0.18,0.94,0.43,1.45,0.53
		C25.76,64.97,25.85,65.02,25.85,65.14z" />
    <path class="st0"
          d="M23.47,33.05c-0.04,1.74,0.24,3.61,0.72,5.47c0.65,2.54,1.74,4.85,3.37,6.92c0.55,0.69,1.17,1.3,1.78,1.93
		c0.06,0.06,0.13,0.12,0.2,0.18c0.07,0.08,0.17,0.16,0.09,0.27c-0.07,0.1-0.2,0.1-0.3,0.05c-0.3-0.13-0.64-0.09-0.94-0.16
		c-0.5-0.11-0.99-0.11-1.49-0.12c-0.86-0.01-1.72-0.04-2.57,0.03c-1.17,0.1-2.32,0.33-3.45,0.69c-1.57,0.5-3.06,1.19-4.47,2.04
		c-0.51,0.3-0.98,0.65-1.47,0.98c-0.13,0.09-0.27,0.18-0.4,0.26c-0.29,0.17-0.36,0.16-0.49-0.13c-0.2-0.42-0.41-0.84-0.56-1.27
		c-0.64-1.81-1.29-3.63-1.74-5.5c-0.25-1.02-0.52-2.04-0.73-3.07c-0.23-1.15-0.41-2.31-0.62-3.47c-0.07-0.37-0.15-0.73-0.21-1.1
		c-0.05-0.35,0.07-0.54,0.35-0.7c0.65-0.37,1.3-0.75,1.96-1.11c1.47-0.81,2.99-1.53,4.54-2.17c1.12-0.46,2.24-0.93,3.41-1.28
		c0.8-0.24,1.59-0.53,2.4-0.73c0.54-0.13,0.63-0.06,0.64,0.5C23.48,32.01,23.47,32.44,23.47,33.05z" />
    <path class="st0"
          d="M100.31,116.52c-0.68,0-1.35-0.08-2.03-0.16c-0.18-0.02-0.36-0.04-0.53-0.03c-1.22,0.04-2.42-0.13-3.62-0.26
		c-0.11-0.01-0.21-0.03-0.31-0.07c-0.29-0.1-0.37-0.2-0.25-0.48c0.35-0.84,0.57-1.73,0.84-2.6c0.36-1.16,0.61-2.34,0.78-3.54
		c0.13-0.86,0.26-1.73,0.34-2.6c0.08-0.82,0.06-1.63,0-2.46c-0.08-1.03-0.26-2.05-0.47-3.06c-0.14-0.68-0.31-1.35-0.56-2.01
		c-0.03-0.08-0.07-0.16-0.11-0.25c-0.03-0.09-0.04-0.18,0.04-0.24c0.06-0.05,0.14-0.03,0.2,0.01c0.2,0.11,0.41,0.22,0.6,0.35
		c1.45,0.9,3.02,1.52,4.67,1.96c0.92,0.24,1.86,0.3,2.79,0.44c0.89,0.13,1.77,0.14,2.66,0.15c0.27,0,0.53-0.01,0.79-0.1
		c0.2-0.07,0.42-0.07,0.63-0.08c0.94-0.04,1.88-0.15,2.8-0.37c0.52-0.13,0.73,0.01,0.7,0.53c-0.06,0.96,0,1.94-0.13,2.88
		c-0.18,1.39-0.2,2.81-0.52,4.18c-0.2,0.87-0.25,1.77-0.46,2.63c-0.26,1.05-0.45,2.12-0.73,3.17c-0.07,0.26-0.15,0.52-0.17,0.78
		c-0.04,0.42-0.3,0.58-0.67,0.63c-0.58,0.09-1.16,0.23-1.75,0.24c-0.73,0.02-1.45,0.17-2.18,0.14c-0.84-0.03-1.67,0.09-2.51,0.15
		C100.88,116.5,100.59,116.51,100.31,116.52z" />
    <path class="st0"
          d="M85.3,127.55c-0.66-0.13-1.27-0.24-1.88-0.39c-1-0.25-2-0.52-2.99-0.8c-1.17-0.33-2.31-0.73-3.45-1.16
		c-1.13-0.43-2.26-0.88-3.35-1.42c-1.39-0.69-2.78-1.39-4.07-2.25c-0.41-0.28-0.42-0.34-0.06-0.67c1.08-1,2.05-2.09,2.95-3.25
		c1.6-2.06,2.85-4.32,3.54-6.85c0.29-1.06,0.55-2.14,0.62-3.25c0.01-0.09,0-0.19,0.1-0.23c0.14-0.05,0.18,0.08,0.23,0.17
		c0.7,1.34,1.64,2.51,2.69,3.59c0.78,0.8,1.64,1.54,2.57,2.17c1.32,0.9,2.71,1.65,4.19,2.25c1.51,0.61,3.06,1.08,4.64,1.46
		c0.28,0.07,0.36,0.21,0.24,0.52c-0.17,0.43-0.37,0.85-0.56,1.27c-0.86,1.81-1.83,3.55-2.85,5.27c-0.65,1.09-1.34,2.15-2.04,3.2
		C85.67,127.38,85.53,127.57,85.3,127.55z" />
    <path class="st0"
          d="M92.46,32.46c0.2-0.8,0.4-1.54,0.55-2.29c0.14-0.7,0.24-1.4,0.22-2.12c-0.01-0.52-0.01-1.04,0-1.55
		c0.02-1.22-0.13-2.41-0.38-3.61c-0.33-1.65-0.82-3.25-1.4-4.82c-0.17-0.47-0.39-0.92-0.57-1.38c-0.24-0.6-0.21-0.64,0.4-0.81
		c1.18-0.34,2.4-0.54,3.6-0.78c0.89-0.18,1.8-0.23,2.7-0.34c0.99-0.12,1.99-0.11,2.98-0.23c1.31-0.15,2.64-0.05,3.96-0.04
		c0.31,0,0.46,0.19,0.57,0.47c0.55,1.43,1.03,2.89,1.45,4.36c0.36,1.25,0.68,2.51,0.93,3.79c0.26,1.34,0.49,2.69,0.62,4.06
		c0.04,0.48,0.2,0.94,0.17,1.43c-0.03,0.59-0.04,0.64-0.61,0.6c-1-0.08-1.99-0.12-2.99-0.12c-1.27,0-2.54-0.08-3.79,0.16
		c-1.4,0.26-2.8,0.51-4.13,1.08c-0.8,0.34-1.62,0.65-2.38,1.09c-0.46,0.27-0.92,0.55-1.36,0.85C92.86,32.35,92.72,32.46,92.46,32.46
		z" />
    <path class="st0"
          d="M131.03,63.96c0,0.13-0.07,0.24-0.13,0.35c-0.35,0.72-0.78,1.4-1.21,2.08c-1,1.58-2.05,3.14-3.22,4.6
		c-1.23,1.53-2.5,3.02-3.92,4.39c-0.08,0.07-0.15,0.15-0.23,0.22c-0.29,0.24-0.39,0.24-0.59-0.09c-0.52-0.83-1.05-1.65-1.64-2.45
		c-0.95-1.28-2-2.46-3.17-3.55c-1.66-1.55-3.5-2.81-5.63-3.64c-0.45-0.18-0.88-0.39-1.35-0.5c-0.05-0.01-0.1-0.03-0.15-0.05
		c-0.1-0.04-0.21-0.1-0.21-0.22c0-0.14,0.13-0.15,0.23-0.18c0.7-0.22,1.36-0.54,2.03-0.84c1.15-0.52,2.19-1.2,3.17-1.98
		c2.33-1.84,4.12-4.13,5.53-6.74c0.19-0.36,0.39-0.72,0.6-1.08c0.18-0.31,0.25-0.32,0.55-0.14c0.49,0.3,0.88,0.73,1.32,1.09
		c1.37,1.15,2.62,2.43,3.85,3.72c1.11,1.16,2.17,2.37,3.16,3.63c0.29,0.36,0.62,0.69,0.87,1.08
		C130.94,63.77,131.02,63.85,131.03,63.96z" />
    <path class="st0"
          d="M57.83,23.94c-0.13,0-0.18-0.1-0.24-0.19c-0.3-0.42-0.58-0.86-0.89-1.27c-1.6-2.14-3.63-3.76-5.94-5.07
		c-1.14-0.65-2.33-1.15-3.54-1.64c-0.61-0.25-0.63-0.28-0.29-0.82c0.77-1.2,1.6-2.36,2.49-3.48c1.5-1.86,3.1-3.64,4.84-5.29
		c0.8-0.76,1.66-1.46,2.47-2.21c0.43-0.4,0.93-0.73,1.34-1.14c0.26-0.25,0.5-0.26,0.82-0.12c1.62,0.72,3.16,1.58,4.65,2.53
		c1.37,0.87,2.66,1.85,3.94,2.87c0.04,0.03,0.08,0.07,0.12,0.1c0.42,0.38,0.42,0.46-0.03,0.8c-1.41,1.06-2.81,2.15-4.01,3.45
		c-2.17,2.34-3.94,4.92-4.88,8.02c-0.29,0.98-0.54,1.96-0.61,2.98c-0.01,0.12-0.05,0.24-0.09,0.36
		C57.97,23.88,57.9,23.92,57.83,23.94z" />
    <path class="st0"
          d="M88.5,15.02c0.02,0.19-0.08,0.26-0.2,0.32c-0.26,0.12-0.51,0.25-0.78,0.35c-1.83,0.66-3.48,1.64-5.03,2.8
		c-1.17,0.88-2.23,1.88-3.14,3.05c-0.45,0.58-0.89,1.16-1.29,1.77c-0.06,0.09-0.1,0.22-0.22,0.2c-0.16-0.02-0.13-0.18-0.16-0.3
		c-0.17-0.57-0.09-1.17-0.21-1.75c-0.27-1.33-0.6-2.64-1.1-3.91c-0.57-1.45-1.3-2.82-2.16-4.12c-0.39-0.59-0.83-1.16-1.26-1.73
		c-0.69-0.91-1.48-1.73-2.27-2.56c-0.27-0.28-0.27-0.35,0.07-0.57c0.85-0.56,1.75-1.04,2.64-1.53c1.71-0.94,3.47-1.75,5.27-2.49
		c0.43-0.18,0.84-0.38,1.28-0.55c0.41-0.15,0.71-0.1,0.99,0.24c0.95,1.13,1.94,2.23,2.84,3.41c1.31,1.72,2.55,3.48,3.63,5.36
		c0.33,0.57,0.64,1.16,0.96,1.73C88.42,14.85,88.47,14.95,88.5,15.02z" />
    <path class="st0"
          d="M74.94,36.92c0.02,1.14,0.16,2.27,0.28,3.41c0.07,0.63,0.09,1.28,0.19,1.91c0.15,0.89,0.24,1.8,0.43,2.68
		c0.02,0.1,0.04,0.21,0.06,0.31c0.05,0.3-0.06,0.52-0.35,0.64c-0.28,0.11-0.56,0.24-0.84,0.34c-1.04,0.37-2.08,0.75-3.11,1.12
		c-0.62,0.22-1.02,0.06-1.41-0.36c-0.35-0.38-0.7-0.76-1.05-1.13c-0.32-0.34-0.66-0.66-0.97-1c-0.28-0.31-0.29-0.42,0.01-0.72
		c1.23-1.25,2.34-2.59,3.4-3.98c1.04-1.36,2-2.77,2.84-4.27c0.09-0.16,0.12-0.46,0.35-0.41c0.28,0.05,0.16,0.35,0.17,0.54
		C74.95,36.31,74.94,36.62,74.94,36.92z" />
    <path class="st0"
          d="M85.71,66.21c0.05-0.31,0.16-0.59,0.29-0.86c0.55-1.08,1.1-2.16,1.73-3.2c0.23-0.39,0.33-0.42,0.73-0.23
		c1.82,0.88,3.69,1.62,5.6,2.26c1.23,0.41,2.48,0.76,3.76,1.03c0.07,0.01,0.15,0.01,0.21,0.05c0.1,0.06,0.1,0.16,0.01,0.21
		c-0.12,0.07-0.26,0.11-0.4,0.15c-1.39,0.45-2.77,0.95-4.1,1.56c-1.49,0.69-2.93,1.47-4.33,2.34c-0.15,0.09-0.3,0.19-0.46,0.28
		c-0.37,0.21-0.42,0.21-0.66-0.12c-0.7-0.95-1.39-1.9-2.09-2.85C85.87,66.64,85.75,66.45,85.71,66.21z" />
    <path class="st0"
          d="M48.21,63.84c-0.05,0.15-0.1,0.31-0.16,0.45c-0.7,1.64-1.49,3.24-2.35,4.8c-0.25,0.45-0.36,0.49-0.81,0.24
		c-1.5-0.82-3.07-1.51-4.66-2.14c-1.16-0.45-2.33-0.88-3.55-1.18c-0.36-0.09-0.72-0.2-1.08-0.3c-0.1-0.03-0.22-0.07-0.23-0.19
		c-0.01-0.14,0.13-0.15,0.23-0.17c0.78-0.17,1.57-0.31,2.34-0.51c1.15-0.3,2.3-0.64,3.41-1.06c1.1-0.41,2.19-0.87,3.26-1.35
		c0.52-0.24,1.02-0.5,1.53-0.77c0.27-0.14,0.45-0.11,0.64,0.15c0.4,0.53,0.82,1.03,1.23,1.54C48.12,63.5,48.24,63.64,48.21,63.84z" />
    <path class="st0"
          d="M56.53,85.04c0,0.16-0.09,0.23-0.18,0.28c-0.23,0.13-0.46,0.27-0.71,0.38c-1.75,0.82-3.41,1.78-5.03,2.83
		c-1.11,0.72-2.17,1.49-3.19,2.33c-0.11,0.09-0.23,0.3-0.39,0.17c-0.15-0.13,0.01-0.3,0.08-0.43c0.91-1.77,1.6-3.62,2.18-5.51
		c0.43-1.41,0.76-2.85,1.07-4.3c0.09-0.44,0.19-0.53,0.6-0.47c0.5,0.07,1,0.06,1.49,0.05c0.61-0.01,1.21,0.1,1.81,0.12
		c0.29,0.01,0.4,0.21,0.5,0.42c0.23,0.48,0.48,0.96,0.68,1.45c0.35,0.82,0.73,1.63,1,2.47C56.47,84.9,56.51,84.98,56.53,85.04z" />
    <path class="st0"
          d="M38.81,80.08c-0.03-0.21,0.11-0.28,0.21-0.37c1.2-0.97,2.25-2.07,3.25-3.24c1.07-1.25,2.04-2.57,2.97-3.92
		c0.15-0.22,0.27-0.46,0.43-0.68c0.23-0.31,0.34-0.35,0.67-0.15c1.01,0.6,2.01,1.22,3.02,1.83c0.26,0.15,0.33,0.37,0.33,0.67
		c-0.01,1.39-0.18,2.77-0.39,4.14c-0.07,0.44-0.17,0.54-0.63,0.55c-0.62,0.02-1.25,0.02-1.87,0.07c-1.13,0.1-2.28,0.12-3.4,0.28
		c-1.33,0.2-2.68,0.37-3.98,0.75C39.22,80.08,39.01,80.13,38.81,80.08z" />
    <path class="st0"
          d="M75.6,86.69c-0.02,0.38-0.19,0.78-0.26,1.2c-0.1,0.7-0.29,1.4-0.41,2.1c-0.17,0.93-0.21,1.87-0.35,2.8
		c-0.17,1.08-0.14,2.17-0.17,3.25c0,0.09,0,0.19-0.1,0.23c-0.13,0.06-0.19-0.05-0.25-0.14c-0.1-0.17-0.2-0.34-0.29-0.51
		c-0.73-1.41-1.61-2.73-2.55-4.02c-1.03-1.42-2.16-2.74-3.34-4.03c-0.17-0.19-0.21-0.35-0.05-0.56c0.46-0.59,0.91-1.19,1.37-1.78
		c0.13-0.18,0.3-0.23,0.52-0.18c0.84,0.22,1.72,0.3,2.57,0.48c1.03,0.21,2.06,0.42,3.06,0.73C75.54,86.32,75.64,86.42,75.6,86.69z" />
    <path class="st0"
          d="M86.89,89.48c-0.02,0.05-0.03,0.1-0.06,0.14c-0.08,0.07-0.17,0.05-0.24,0c-0.36-0.23-0.72-0.47-1.08-0.69
		c-1.56-0.95-3.19-1.73-4.89-2.41c-0.89-0.36-1.8-0.67-2.71-0.99c-0.46-0.16-0.47-0.2-0.37-0.71c0.23-1.14,0.64-2.22,0.98-3.33
		c0.08-0.26,0.25-0.38,0.49-0.43c0.44-0.09,0.87-0.2,1.31-0.25c0.93-0.12,1.85-0.32,2.8-0.36c0.42-0.01,0.43-0.04,0.56,0.38
		c0.2,0.65,0.4,1.29,0.58,1.95c0.42,1.48,0.97,2.91,1.56,4.32c0.31,0.74,0.58,1.5,0.99,2.19C86.85,89.34,86.86,89.41,86.89,89.48z" />
    <path class="st0"
          d="M60.57,96.89c-0.09-0.13-0.13-0.16-0.13-0.19c0-0.8-0.11-1.59-0.19-2.39c-0.11-1.01-0.22-2.01-0.48-3
		c-0.11-0.43-0.16-0.87-0.25-1.31c-0.23-1.17-0.64-2.3-0.96-3.45c-0.16-0.58-0.16-0.62,0.39-0.85c1.02-0.42,2.05-0.82,3.07-1.24
		c0.21-0.08,0.38-0.07,0.54,0.07c1.01,0.87,2.05,1.71,2.97,2.7c0.2,0.21,0.13,0.38,0,0.57c-0.38,0.58-0.76,1.17-1.13,1.75
		c-1.21,1.88-2.26,3.84-3.18,5.88C61.01,95.9,60.81,96.36,60.57,96.89z" />
    <path class="st0"
          d="M85.46,78.8c-0.77,0.03-0.88-0.05-1.01-0.66c-0.18-0.87-0.34-1.74-0.51-2.62c-0.05-0.24,0-0.41,0.19-0.57
		c1.15-0.99,2.34-1.92,3.6-2.77c0.25-0.17,0.42-0.13,0.6,0.08c0.37,0.41,0.77,0.8,1.11,1.23c0.6,0.78,1.33,1.44,2.01,2.14
		c1.2,1.25,2.5,2.39,3.89,3.42c0.08,0.06,0.21,0.11,0.16,0.24c-0.05,0.13-0.18,0.09-0.28,0.08c-0.39-0.04-0.77-0.13-1.16-0.18
		c-0.74-0.08-1.48-0.22-2.22-0.31c-1.44-0.17-2.88-0.22-4.32-0.21C86.78,78.7,86.05,78.69,85.46,78.8z" />
    <path class="st0"
          d="M84.22,57.02c0.19-1.29,0.01-2.6,0.22-3.89c0.05-0.29,0.17-0.39,0.45-0.41c0.89-0.07,1.78-0.09,2.67-0.14
		c0.99-0.05,1.98-0.19,2.97-0.35c1.25-0.2,2.5-0.38,3.72-0.69c0.09-0.02,0.19-0.04,0.23,0.07c0.03,0.1-0.05,0.16-0.12,0.22
		c-0.29,0.26-0.59,0.52-0.88,0.79c-1.35,1.25-2.57,2.62-3.73,4.05c-0.66,0.82-1.23,1.7-1.84,2.56c-0.09,0.13-0.19,0.26-0.28,0.39
		c-0.12,0.18-0.28,0.2-0.47,0.11c-0.14-0.07-0.29-0.13-0.43-0.21c-0.66-0.36-1.31-0.73-1.97-1.07c-0.4-0.21-0.59-0.49-0.53-0.94
		C84.23,57.35,84.22,57.18,84.22,57.02z" />
    <path class="st0"
          d="M61.83,47.89c-0.04-0.01-0.1-0.03-0.17-0.06c-0.97-0.45-1.93-0.92-2.87-1.43c-0.27-0.15-0.31-0.34-0.23-0.63
		c0.27-1,0.51-2,0.79-2.99c0.14-0.5,0.21-1.01,0.32-1.51c0.14-0.66,0.27-1.33,0.37-1.99c0.1-0.65,0.21-1.3,0.2-1.96
		c0-0.25,0.03-0.5,0.1-0.74c0.03-0.1,0.06-0.23,0.17-0.25c0.13-0.02,0.16,0.11,0.21,0.2c0.19,0.36,0.38,0.72,0.57,1.09
		c1.06,2.01,2.37,3.85,3.73,5.67c0.21,0.28,0.44,0.56,0.67,0.84c0.17,0.21,0.13,0.38-0.06,0.56c-1.08,1.04-2.16,2.08-3.3,3.05
		C62.2,47.85,62.05,47.93,61.83,47.89z" />
    <path class="st0"
          d="M48.67,41.08c0.19-0.08,0.27,0.07,0.36,0.16c1.96,1.89,4.14,3.48,6.46,4.9c0.29,0.18,0.56,0.39,0.86,0.54
		c0.27,0.13,0.31,0.29,0.21,0.56c-0.27,0.72-0.54,1.43-0.78,2.16c-0.22,0.66-0.52,1.29-0.78,1.93c-0.09,0.23-0.25,0.35-0.51,0.41
		c-0.47,0.1-0.94,0.19-1.43,0.17c-0.36-0.02-0.7,0.14-1.06,0.12c-0.43-0.03-0.5-0.06-0.56-0.48c-0.19-1.41-0.49-2.8-0.81-4.19
		c-0.47-1.98-1.09-3.91-1.85-5.79C48.73,41.42,48.59,41.27,48.67,41.08z" />
    <path class="st0"
          d="M85.4,42.11c0.11,0.17,0.03,0.32-0.02,0.46c-0.49,1.23-0.83,2.5-1.2,3.77c-0.16,0.55-0.25,1.11-0.37,1.67
		c-0.2,0.87-0.29,1.75-0.46,2.63c-0.1,0.52-0.17,0.6-0.7,0.6c-1.01-0.01-2.03,0.09-3.04-0.14c-0.31-0.07-0.64-0.03-0.96-0.03
		c-0.23,0-0.38-0.11-0.39-0.35c-0.03-1.24-0.44-2.42-0.58-3.64c-0.06-0.5-0.08-0.5,0.38-0.73c0.69-0.34,1.39-0.65,2.07-1
		c1.67-0.85,3.27-1.83,4.78-2.94C85.06,42.29,85.18,42.13,85.4,42.11z" />
    <path class="st0"
          d="M50.66,56.48c0.13,0.71-0.26,1.1-0.81,1.42c-0.83,0.48-1.65,1-2.47,1.5c-0.45,0.28-0.55,0.28-0.91-0.13
		c-0.81-0.93-1.67-1.81-2.54-2.67c-1-0.99-1.99-2-3.11-2.86c-0.35-0.27-0.69-0.56-1.04-0.84c-0.07-0.06-0.16-0.12-0.13-0.21
		c0.04-0.13,0.18-0.11,0.27-0.09c0.53,0.15,1.09,0.19,1.62,0.3c0.84,0.17,1.68,0.28,2.53,0.39c0.92,0.13,1.85,0.06,2.77,0.24
		c0.64,0.12,1.31,0.03,1.97,0.04c0.32,0,0.64,0,0.96,0c0.52,0.01,0.54,0.03,0.6,0.53C50.48,54.89,50.57,55.69,50.66,56.48z" />
  </g>
</svg>