<?xml version="1.0" encoding="iso-8859-1"?>
<!-- Generator: Adobe Illustrator 19.0.0, SVG Export Plug-In . SVG Version: 6.00 Build 0)  -->
<svg version="1.1"
     id="Capa_1"
     xmlns="http://www.w3.org/2000/svg"
     xmlns:xlink="http://www.w3.org/1999/xlink"
     x="0px"
     y="0px"
     viewBox="0 0 375 375"
     style="enable-background:new 0 0 375 375;"
     xml:space="preserve">
  <g>
    <g>
      <path d="M337.5,131.3V93.8L300,37.5l-37.5,56.3v37.5H225V93.8l-37.5-56.3L150,93.7v37.5h-37.5V93.7L75,37.5L37.5,93.8v37.5H0v37.5
			h37.5v75H0v37.5h37.5v56.2h75v-56.3H150v56.3h75v-56.3h37.5v56.3h75v-56.3H375v-37.5h-37.5v-75H375v-37.4H337.5z M150,243.8h-37.5
			v-75H150V243.8z M262.5,243.8H225v-75h37.5V243.8z" />
    </g>
  </g>
  <g></g>
  <g></g>
  <g></g>
  <g></g>
  <g></g>
  <g></g>
  <g></g>
  <g></g>
  <g></g>
  <g></g>
  <g></g>
  <g></g>
  <g></g>
  <g></g>
  <g></g>
</svg>