<svg id="svg3328" height="512" viewBox="0 0 135.46666 135.46667" width="512" xmlns="http://www.w3.org/2000/svg" xmlns:svg="http://www.w3.org/2000/svg"><g id="layer1"><path id="rect1584" d="m3.3094777 6.5827458c-1.8338001 0-3.30950008 1.48442-3.30950008 3.31905v49.2524602c0 1.835211 1.48059998 3.30976 3.30950008 3.30976h55.8361013c1.834798 0 3.319201-1.47542 3.319201-3.30976v-49.2524602c0-1.83511-1.480601-3.31905-3.319201-3.31905zm73.0038003 0c-1.8357 0-3.309498 1.48442-3.309498 3.31905v49.2524602c0 1.835211 1.4806 3.30976 3.309498 3.30976h55.843902c1.8357 0 3.3095-1.47542 3.3095-3.30976v-49.2524602c0-1.83511-1.4806-3.31905-3.3095-3.31905zm-73.0038003 66.4196112c-1.8338001 0-3.30950008 1.484331-3.30950008 3.31915v49.252453c0 1.8352 1.48059998 3.30995 3.30950008 3.30995h55.8361013c1.834798-.00019 3.319201-1.47542 3.319201-3.30995v-49.252453c0-1.83511-1.480601-3.31915-3.319201-3.31915zm73.0038003 0c-1.8357 0-3.309498 1.484331-3.309498 3.31915v49.252453c0 1.8352 1.4806 3.30995 3.309498 3.30995h55.843902c1.8357-.00019 3.3095-1.47542 3.3095-3.30995v-49.252453c0-1.83511-1.4806-3.31915-3.3095-3.31915z" paint-order="fill markers stroke"/></g></svg>