<svg xmlns="http://www.w3.org/2000/svg" version="1.1" xmlns:xlink="http://www.w3.org/1999/xlink" width="512" height="512" x="0" y="0" viewBox="0 0 512 512" style="enable-background:new 0 0 512 512" xml:space="preserve"><g transform="matrix(0.5,0,0,0.5,128.00000985639417,128)"><path fill="#f0f0f0" d="M256 512c141.37 0 256-114.63 256-256S397.37 0 256 0 0 114.63 0 256s114.63 256 256 256z" opacity="1" data-original="#f0f0f0"></path><path fill="#0052b4" d="M496.07 345a256.75 256.75 0 0 0 0-178.06H15.93a256.75 256.75 0 0 0 0 178.06L256 367.37z" opacity="1" data-original="#0052b4"></path><path fill="#d80027" d="M256 512c110.08 0 203.94-69.4 240.07-167H15.93C52.1 442.6 145.92 512 256 512z" opacity="1" data-original="#d80027"></path></g></svg>